<svg id="people" xmlns="http://www.w3.org/2000/svg" width="56.873" height="85.683" viewBox="0 0 56.873 85.683">
  <defs>
    <style>
      .cls-1 {
        fill: #ffdfba;
      }

      .cls-2 {
        fill: #d6f4fc;
      }

      .cls-3 {
        fill: #bdeffc;
      }

      .cls-4 {
        fill: #e8f8fc;
      }

      .cls-5 {
        fill: #42434d;
      }

      .cls-6 {
        fill: #ffebd2;
      }

      .cls-7 {
        fill: #ffd6a6;
      }

      .cls-8 {
        fill: #fff3e4;
      }

      .cls-9 {
        fill: #4d4e59;
      }

      .cls-10 {
        fill: #f1fafc;
      }
    </style>
  </defs>
  <path id="Path_5" data-name="Path 5" class="cls-1" d="M134.883,76.916v7.29a1.477,1.477,0,0,1-1.477,1.477H79.487a1.477,1.477,0,0,1-1.477-1.477v-7.29A13.834,13.834,0,0,1,91.855,63.187a7.653,7.653,0,0,0,6.2-3.259l-.011-.011a8.586,8.586,0,0,0,1.381-5.63l.028-.068A18.281,18.281,0,0,1,88.17,37.339v-.6A4.553,4.553,0,0,1,83.557,32.2c0-1.72.011-15.951.013-18a4.986,4.986,0,0,1,4.988-4.984A14.692,14.692,0,0,1,102.2,0l19.863.015a1.478,1.478,0,0,1,1.379,2l-1.265,3.335a1.478,1.478,0,0,0,.969,1.943l1.023.3a7.408,7.408,0,0,1,5.375,7.117c0,1.387-.006,11.129-.009,17.226a4.8,4.8,0,0,1-4.807,4.8v.6a18.282,18.282,0,0,1-11.317,16.894v0l.022.052a8.593,8.593,0,0,0,1.379,5.632,7.718,7.718,0,0,0,6.223,3.268A13.834,13.834,0,0,1,134.883,76.916Z" transform="translate(-78.01)"/>
  <path id="Path_6" data-name="Path 6" class="cls-2" d="M134.883,341.512v7.29a1.477,1.477,0,0,1-1.477,1.477H79.487A1.477,1.477,0,0,1,78.01,348.8v-7.29a13.834,13.834,0,0,1,13.845-13.729,7.648,7.648,0,0,0,6.2-3.263c4.995,5.55,5.926,6.585,7.294,8.106a1.479,1.479,0,0,0,2.2,0c1.4-1.556,2.358-2.621,7.283-8.094a7.711,7.711,0,0,0,6.21,3.25A13.834,13.834,0,0,1,134.883,341.512Z" transform="translate(-78.01 -264.596)"/>
  <path id="Path_7" data-name="Path 7" class="cls-3" d="M289.89,343.175a13.771,13.771,0,0,1,13.133,13.755v5.034h3.139a1.477,1.477,0,0,0,1.477-1.477v-7.279a13.848,13.848,0,0,0-13.85-13.741,7.65,7.65,0,0,1-2.939-.616C290.827,338.9,289.9,343.122,289.89,343.175Z" transform="translate(-250.766 -276.28)"/>
  <path id="Path_8" data-name="Path 8" class="cls-4" d="M255.945,327.221c-.023.049-1.845,8.34-1.834,8.287a1.359,1.359,0,0,1-2.353.6c-4.848-5.583-4.187-4.855-4.678-5.3l5.6-6.221A7.676,7.676,0,0,0,255.945,327.221Z" transform="translate(-215.861 -264.651)"/>
  <path id="Path_9" data-name="Path 9" class="cls-4" d="M172.185,324.52l5.477,6.086-4.543,5.384a1.359,1.359,0,0,1-2.366-.584c-.012-.053-1.8-8.191-1.823-8.24A7.672,7.672,0,0,0,172.185,324.52Z" transform="translate(-152.141 -264.596)"/>
  <path id="Path_10" data-name="Path 10" class="cls-5" d="M154.04,14.708c0,1.387-.006,11.129-.009,17.226a4.8,4.8,0,0,1-4.807,4.8c0-2.009.006-6.889.007-11.38a8.862,8.862,0,0,0-8.856-8.869l-18.835-.013a8.865,8.865,0,0,0-8.871,8.858l-.007,11.4A4.553,4.553,0,0,1,108.05,32.2c0-1.72.011-15.951.013-18a4.986,4.986,0,0,1,4.988-4.984A14.692,14.692,0,0,1,126.695,0l19.863.015a1.477,1.477,0,0,1,1.38,2l-1.265,3.335a1.477,1.477,0,0,0,.969,1.942l1.023.3a7.408,7.408,0,0,1,5.375,7.117Z" transform="translate(-102.503)"/>
  <path id="Path_11" data-name="Path 11" class="cls-6" d="M160.743,89.233A8.862,8.862,0,0,1,169.6,98.1c0,4.184-.007,11.982-.007,11.982a18.282,18.282,0,0,1-11.317,16.894v0a18.294,18.294,0,0,1-25.244-16.9c0-.964.007-10.772.007-12.006a8.865,8.865,0,0,1,8.871-8.858Z" transform="translate(-122.87 -72.745)"/>
  <path id="Path_12" data-name="Path 12" class="cls-7" d="M207.331,296.75a18.331,18.331,0,0,1-14.451,0,11.443,11.443,0,0,0,.209-3.032l.028-.068a18.318,18.318,0,0,0,13.978,0l.028.068A11.44,11.44,0,0,0,207.331,296.75Z" transform="translate(-171.669 -239.426)"/>
  <path id="Path_13" data-name="Path 13" class="cls-8" d="M147.152,134.663a2.919,2.919,0,0,1-2.655,5.171,18.284,18.284,0,0,1-11.487-16.976V110.875a8.823,8.823,0,0,1,1.555-5.017,2.183,2.183,0,0,1,3.984,1.268c0,.045,0,11.994,0,12.039A18.147,18.147,0,0,0,147.152,134.663Z" transform="translate(-122.854 -85.531)"/>
  <path id="Path_14" data-name="Path 14" class="cls-9" d="M147.938,2.016c-1.309,3.452-1.291,3.371-1.322,3.534L132.235,5.54a14.693,14.693,0,0,0-13.14,8.1,2.288,2.288,0,0,1-1.552,1.23,4.989,4.989,0,0,0-3.939,4.874l0,1.634a8.838,8.838,0,0,0-.931,3.952l0,6.927a2.308,2.308,0,1,1-4.616-.056c0-1.72.011-15.951.013-18a4.986,4.986,0,0,1,4.988-4.984A14.692,14.692,0,0,1,126.7,0l19.863.015a1.478,1.478,0,0,1,1.379,2Z" transform="translate(-102.504)"/>
  <path id="Path_15" data-name="Path 15" class="cls-3" d="M226.964,366.14v10.688a1.477,1.477,0,1,1-2.954,0V366.14l.379.421a1.479,1.479,0,0,0,2.2,0Z" transform="translate(-197.051 -298.531)"/>
  <path id="Path_16" data-name="Path 16" class="cls-10" d="M172.3,332.275c.275,1.25.569,2.581.818,3.713a1.358,1.358,0,0,1-2.366-.583c-.71-3.224-1.809-8.207-1.824-8.24a7.674,7.674,0,0,0,3.255-2.646l1.577,1.754A7.129,7.129,0,0,0,172.3,332.275Z" transform="translate(-152.142 -264.596)"/>
  <path id="Path_17" data-name="Path 17" class="cls-4" d="M95.759,343.175a13.771,13.771,0,0,0-13.133,13.755v5.034H79.487a1.477,1.477,0,0,1-1.477-1.477v-7.279a13.848,13.848,0,0,1,13.85-13.741,7.65,7.65,0,0,0,2.939-.616c.023.049.949,4.272.96,4.325Z" transform="translate(-78.01 -276.28)"/>
</svg>
