<svg xmlns="http://www.w3.org/2000/svg" xmlns:xlink="http://www.w3.org/1999/xlink" width="1035.822" height="550.3" viewBox="0 0 1035.822 550.3">
  <defs>
    <radialGradient id="radial-gradient" cx="0.5" cy="0.5" r="1.029" gradientTransform="translate(0.26 0.219) scale(0.481 0.563)" gradientUnits="objectBoundingBox">
      <stop offset="0" stop-color="#920000"/>
      <stop offset="0.192" stop-color="#920000"/>
      <stop offset="1" stop-color="#6c0000"/>
    </radialGradient>
  </defs>
  <g id="Group_1" data-name="Group 1" transform="translate(-1656.5 -1274.933)">
    <g id="Group_53" data-name="Group 53" transform="translate(711.411 -230.917)">
      <g id="Group_52" data-name="Group 52">
        <path id="Path_1" data-name="Path 1" d="M1187.459,498.14c0,122.371-98.291,221.572-219.537,221.572H447.537C326.29,719.712,228,620.511,228,498.14V475.572C228,353.2,326.29,254,447.537,254H967.922c121.246,0,219.537,99.2,219.537,221.572Z" transform="translate(759.468 1294.144)" stroke="#f9f900" stroke-miterlimit="10" stroke-width="1" fill="url(#radial-gradient)"/>
        <g id="Group_47" data-name="Group 47" transform="translate(74 590.35)">
          <path id="Path_2" data-name="Path 2" d="M444,689.3c-99.252,0-180-84.4-180-188.152v-23C264,374.4,344.748,290,444,290H956c99.252,0,180,84.4,180,188.152v23C1136,604.9,1055.252,689.3,956,689.3Z" transform="translate(690 702)" fill="none" stroke="#ff6b6b" stroke-miterlimit="10" stroke-width="6" opacity="0.3"/>
          <g id="Group_3" data-name="Group 3" transform="translate(930 968)">
            <path id="Path_3" data-name="Path 3" d="M444,713.3c-112.486,0-204-95.2-204-212.207V478.207C240,361.2,331.514,266,444,266H956c112.486,0,204,95.2,204,212.207v22.885C1160,618.1,1068.49,713.3,956,713.3Z" transform="translate(-240 -267)" fill="none" stroke="#ff9898" stroke-miterlimit="10" stroke-width="2" stroke-dasharray="2.996 9.985"/>
          </g>
        </g>
        <path id="Path_6" data-name="Path 6" d="M591.621,300" transform="translate(763 1300)" fill="none" stroke="#f9f900" stroke-miterlimit="10" stroke-width="1"/>
        <g id="Group_48" data-name="Group 48" transform="translate(-326 -1418)">
          <g id="Group_7" data-name="Group 7" transform="translate(1108.589 2735.35)">
            <path id="Path_7" data-name="Path 7" d="M433.784,736.3c-71.8,0-139.293-27.285-190.059-76.828S165,544.057,165,473.992V453.308c0-70.064,27.958-135.937,78.725-185.48S361.99,191,433.784,191H927.037c71.794,0,139.292,27.285,190.059,76.828s78.726,115.416,78.726,185.48v20.684c0,70.064-27.958,135.937-78.726,185.48S998.829,736.3,927.037,736.3Z" fill="none" stroke="#303030" stroke-miterlimit="10" stroke-width="5"/>
            <path id="Path_8" data-name="Path 8" d="M433.8,735.723c-71.644,0-139-27.225-189.659-76.659S165.578,543.9,165.578,473.991V453.309c0-69.911,27.9-135.638,78.559-185.073s118.015-76.658,189.658-76.658H927.027c71.643,0,139,27.225,189.658,76.659s78.56,115.161,78.56,185.073v20.681c0,69.911-27.9,135.638-78.56,185.073s-118.015,76.66-189.658,76.66H433.8Z" fill="none" stroke="#303030" stroke-miterlimit="10" stroke-width="4.958"/>
            <path id="Path_9" data-name="Path 9" d="M433.8,735.145c-71.492,0-138.705-27.164-189.257-76.49S166.15,543.747,166.15,473.989V453.311c0-69.757,27.84-135.339,78.393-184.665s117.77-76.491,189.257-76.491H927.017c71.492,0,138.7,27.165,189.257,76.491s78.393,114.908,78.393,184.665V473.99c0,69.757-27.84,135.339-78.393,184.666s-117.765,76.49-189.257,76.49Z" fill="none" stroke="#303030" stroke-miterlimit="10" stroke-width="4.916"/>
            <path id="Path_10" data-name="Path 10" d="M433.815,734.568c-71.34,0-138.411-27.1-188.856-76.321s-78.227-114.654-78.227-184.259V453.312c0-69.6,27.782-135.041,78.227-184.258s117.516-76.322,188.856-76.322H927.007c71.34,0,138.41,27.1,188.856,76.322s78.227,114.654,78.227,184.258v20.676c0,69.6-27.781,135.041-78.227,184.259s-117.516,76.321-188.856,76.321Z" fill="none" stroke="#303030" stroke-miterlimit="10" stroke-width="4.873"/>
            <path id="Path_11" data-name="Path 11" d="M433.825,733.99c-71.189,0-138.117-27.044-188.454-76.153s-78.061-114.4-78.061-183.851V453.313c0-69.449,27.722-134.742,78.061-183.85S362.637,193.31,433.825,193.31H927c71.188,0,138.116,27.044,188.454,76.154s78.061,114.4,78.061,183.85v20.673c0,69.449-27.723,134.742-78.061,183.851S998.185,733.99,927,733.99Z" fill="none" stroke="#303030" stroke-miterlimit="10" stroke-width="4.831"/>
            <path id="Path_12" data-name="Path 12" d="M433.835,733.412c-71.038,0-137.823-26.984-188.053-75.984s-77.9-114.146-77.9-183.443v-20.67c0-69.3,27.664-134.444,77.895-183.443S362.8,193.887,433.835,193.887H926.987c71.037,0,137.822,26.985,188.052,75.985s77.9,114.147,77.9,183.443v20.671c0,69.3-27.664,134.444-77.9,183.443s-117.016,75.984-188.052,75.984H433.835Z" fill="none" stroke="#303030" stroke-miterlimit="10" stroke-width="4.789"/>
            <path id="Path_13" data-name="Path 13" d="M433.845,732.835c-70.887,0-137.53-26.925-187.653-75.815s-77.728-113.893-77.728-183.036V453.316c0-69.142,27.6-134.146,77.728-183.036s116.767-75.815,187.653-75.815H926.976c70.886,0,137.528,26.926,187.652,75.815s77.729,113.894,77.729,183.036v20.668c0,69.142-27.6,134.145-77.729,183.036s-116.766,75.815-187.652,75.815Z" fill="none" stroke="#303030" stroke-miterlimit="10" stroke-width="4.747"/>
            <path id="Path_14" data-name="Path 14" d="M433.856,732.258c-70.734,0-137.236-26.866-187.251-75.647s-77.563-113.64-77.563-182.629V453.317c0-68.988,27.546-133.846,77.563-182.628s116.517-75.648,187.251-75.648h493.11c70.733,0,137.234,26.866,187.251,75.648s77.563,113.64,77.563,182.628v20.665c0,68.987-27.547,133.847-77.563,182.629S997.7,732.258,926.966,732.258Z" fill="none" stroke="#303030" stroke-miterlimit="10" stroke-width="4.704"/>
            <path id="Path_15" data-name="Path 15" d="M433.866,731.68c-70.583,0-136.941-26.8-186.85-75.477s-77.4-113.387-77.4-182.221V453.319c0-68.834,27.487-133.548,77.4-182.221s116.267-75.478,186.85-75.478h493.09c70.582,0,136.94,26.806,186.85,75.478s77.4,113.386,77.4,182.221v20.662c0,68.833-27.487,133.548-77.4,182.221S997.539,731.68,926.956,731.68Z" fill="none" stroke="#303030" stroke-miterlimit="10" stroke-width="4.662"/>
            <path id="Path_16" data-name="Path 16" d="M433.876,731.1c-70.432,0-136.648-26.744-186.449-75.309S170.2,542.66,170.2,473.98V453.32c0-68.68,27.427-133.25,77.23-181.813S363.445,196.2,433.876,196.2H926.945c70.432,0,136.647,26.745,186.448,75.31s77.23,113.134,77.23,181.813v20.66c0,68.681-27.427,133.25-77.23,181.814s-116.017,75.3-186.448,75.3Z" fill="none" stroke="#303030" stroke-miterlimit="10" stroke-width="4.62"/>
            <path id="Path_17" data-name="Path 17" d="M433.887,730.526c-70.28,0-136.354-26.685-186.048-75.14s-77.064-112.88-77.064-181.406V453.322c0-68.526,27.368-132.951,77.064-181.4s115.768-75.141,186.048-75.141H926.935c70.28,0,136.353,26.685,186.048,75.141s77.064,112.879,77.064,181.4v20.657c0,68.526-27.369,132.951-77.064,181.406s-115.768,75.14-186.048,75.14Z" fill="none" stroke="#303030" stroke-miterlimit="10" stroke-width="4.577"/>
            <path id="Path_18" data-name="Path 18" d="M433.9,729.947c-70.128,0-136.059-26.624-185.647-74.97s-76.9-112.627-76.9-181V453.323c0-68.372,27.309-132.652,76.9-181S363.769,197.352,433.9,197.352H926.925c70.128,0,136.058,26.625,185.647,74.972s76.9,112.626,76.9,181v20.654c0,68.372-27.309,132.652-76.9,181s-115.519,74.97-185.647,74.97Z" fill="none" stroke="#303030" stroke-miterlimit="10" stroke-width="4.535"/>
            <path id="Path_19" data-name="Path 19" d="M433.907,729.37c-69.977,0-135.766-26.565-185.246-74.8S171.93,542.2,171.93,473.976V453.324c0-68.218,27.25-132.354,76.732-180.591s115.269-74.8,185.245-74.8H926.914c69.977,0,135.765,26.565,185.245,74.8s76.732,112.373,76.732,180.591v20.652c0,68.219-27.251,132.354-76.732,180.591s-115.271,74.8-185.245,74.8Z" fill="none" stroke="#303030" stroke-miterlimit="10" stroke-width="4.493"/>
            <path id="Path_20" data-name="Path 20" d="M433.918,728.793c-69.826,0-135.472-26.506-184.846-74.635S172.507,542.04,172.507,473.974V453.326c0-68.064,27.191-132.055,76.566-180.184s115.02-74.634,184.845-74.634H926.9c69.826,0,135.47,26.506,184.845,74.635s76.567,112.12,76.567,180.184v20.649c0,68.065-27.192,132.055-76.567,180.184S996.73,728.795,926.9,728.795H433.918Z" fill="none" stroke="#303030" stroke-miterlimit="10" stroke-width="4.451"/>
            <path id="Path_21" data-name="Path 21" d="M433.928,728.215c-69.674,0-135.177-26.445-184.444-74.466s-76.4-111.865-76.4-179.776V453.327c0-67.91,27.132-131.756,76.4-179.776s114.77-74.467,184.444-74.467H926.894c69.674,0,135.177,26.446,184.443,74.467s76.4,111.866,76.4,179.776v20.646c0,67.91-27.132,131.756-76.4,179.776s-114.769,74.466-184.443,74.466Z" fill="none" stroke="#303030" stroke-miterlimit="10" stroke-width="4.409"/>
            <path id="Path_22" data-name="Path 22" d="M433.939,727.638c-69.522,0-134.885-26.385-184.044-74.3s-76.233-111.612-76.233-179.369V453.328c0-67.757,27.073-131.458,76.233-179.369s114.521-74.3,184.044-74.3H926.883c69.522,0,134.883,26.386,184.042,74.3s76.234,111.612,76.234,179.369v20.643c0,67.757-27.073,131.458-76.234,179.369s-114.52,74.3-184.042,74.3Z" fill="none" stroke="#303030" stroke-miterlimit="10" stroke-width="4.366"/>
            <path id="Path_23" data-name="Path 23" d="M433.949,727.061c-69.371,0-134.59-26.326-183.643-74.128S174.239,541.574,174.239,473.97V453.33c0-67.6,27.015-131.16,76.067-178.962S364.578,200.24,433.949,200.24H926.873c69.371,0,134.589,26.326,183.642,74.128s76.068,111.359,76.068,178.962v20.64c0,67.6-27.016,131.16-76.068,178.962S996.244,727.06,926.873,727.06Z" fill="none" stroke="#303030" stroke-miterlimit="10" stroke-width="4.324"/>
            <path id="Path_24" data-name="Path 24" d="M433.96,726.484c-69.22,0-134.3-26.266-183.241-73.96s-75.9-111.106-75.9-178.555V453.331c0-67.449,26.956-130.862,75.9-178.554s114.022-73.96,183.241-73.96h492.9c69.219,0,134.3,26.266,183.241,73.96S1186,385.883,1186,453.331v20.638c0,67.449-26.957,130.862-75.9,178.555s-114.023,73.96-183.241,73.96Z" fill="none" stroke="#303030" stroke-miterlimit="10" stroke-width="4.282"/>
            <path id="Path_25" data-name="Path 25" d="M433.97,725.9c-69.069,0-134-26.205-182.841-73.79S175.4,541.263,175.4,473.967V453.332c0-67.3,26.9-130.562,75.735-178.147S364.9,201.4,433.97,201.4H926.852c69.068,0,134,26.205,182.841,73.791s75.735,110.852,75.735,178.147v20.635c0,67.3-26.9,130.562-75.735,178.148S995.923,725.9,926.852,725.9Z" fill="none" stroke="#303030" stroke-miterlimit="10" stroke-width="4.239"/>
            <path id="Path_26" data-name="Path 26" d="M433.981,725.328c-68.917,0-133.709-26.146-182.439-73.622s-75.569-110.6-75.569-177.74V453.334c0-67.141,26.838-130.264,75.569-177.739s113.523-73.623,182.439-73.623h492.86c68.917,0,133.708,26.146,182.439,73.623s75.569,110.6,75.569,177.739v20.632c0,67.141-26.838,130.264-75.569,177.74s-113.526,73.622-182.439,73.622Z" fill="none" stroke="#303030" stroke-miterlimit="10" stroke-width="4.197"/>
            <path id="Path_27" data-name="Path 27" d="M433.991,724.751c-68.766,0-133.415-26.086-182.039-73.454s-75.4-110.345-75.4-177.332v-20.63c0-66.987,26.779-129.966,75.4-177.332s113.275-73.454,182.04-73.454H926.831c68.765,0,133.414,26.087,182.038,73.453s75.4,110.346,75.4,177.332v20.629c0,66.987-26.779,129.966-75.4,177.332S995.6,724.75,926.831,724.75H433.991Z" fill="none" stroke="#303030" stroke-miterlimit="10" stroke-width="4.155"/>
            <path id="Path_28" data-name="Path 28" d="M434,724.173c-68.614,0-133.122-26.026-181.638-73.284S177.127,540.8,177.127,473.963V453.337c0-66.833,26.719-129.667,75.237-176.925S365.388,203.127,434,203.127H926.82c68.613,0,133.121,26.026,181.637,73.284S1183.7,386.5,1183.7,453.336v20.626c0,66.833-26.72,129.667-75.238,176.925S995.433,724.173,926.82,724.173Z" fill="none" stroke="#303030" stroke-miterlimit="10" stroke-width="4.113"/>
            <path id="Path_29" data-name="Path 29" d="M434.012,723.6c-68.462,0-132.827-25.966-181.237-73.116S177.7,540.642,177.7,473.962V453.338c0-66.68,26.661-129.368,75.072-176.517S365.55,203.7,434.012,203.7h492.8c68.462,0,132.826,25.967,181.237,73.117s75.072,109.838,75.072,176.517v20.623c0,66.68-26.661,129.368-75.072,176.518S995.272,723.6,926.809,723.6Z" fill="none" stroke="#303030" stroke-miterlimit="10" stroke-width="4.07"/>
            <path id="Path_30" data-name="Path 30" d="M434.023,723.019c-68.311,0-132.534-25.907-180.836-72.947s-74.9-109.584-74.9-176.111V453.34c0-66.526,26.6-129.07,74.9-176.11s112.525-72.947,180.836-72.947H926.8c68.311,0,132.533,25.907,180.836,72.947s74.906,109.585,74.906,176.11v20.62c0,66.526-26.6,129.07-74.906,176.111S995.11,723.019,926.8,723.019Z" fill="none" stroke="#303030" stroke-miterlimit="10" stroke-width="4.028"/>
            <path id="Path_31" data-name="Path 31" d="M434.034,722.441c-68.16,0-132.24-25.846-180.436-72.778s-74.739-109.332-74.739-175.7V453.341c0-66.372,26.542-128.772,74.739-175.7s112.276-72.779,180.436-72.779H926.788c68.159,0,132.239,25.846,180.435,72.779s74.739,109.331,74.739,175.7v20.618c0,66.371-26.543,128.772-74.739,175.7s-112.277,72.779-180.435,72.779Z" fill="none" stroke="#303030" stroke-miterlimit="10" stroke-width="3.986"/>
            <path id="Path_32" data-name="Path 32" d="M434.044,721.863c-68.008,0-131.946-25.786-180.035-72.609s-74.572-109.078-74.572-175.3V453.343c0-66.218,26.484-128.473,74.573-175.3s112.027-72.609,180.034-72.609H926.777c68.008,0,131.945,25.787,180.034,72.61s74.573,109.078,74.573,175.3v20.615c0,66.218-26.484,128.473-74.573,175.3s-112.027,72.609-180.034,72.609H434.044Z" fill="none" stroke="#303030" stroke-miterlimit="10" stroke-width="3.944"/>
            <path id="Path_33" data-name="Path 33" d="M434.055,721.286c-67.858,0-131.653-25.727-179.634-72.441s-74.407-108.824-74.407-174.889V453.344c0-66.064,26.425-128.174,74.407-174.888S366.2,206.014,434.055,206.014H926.767c67.857,0,131.652,25.726,179.634,72.442s74.407,108.824,74.407,174.888v20.612c0,66.064-26.425,128.175-74.407,174.889s-111.78,72.441-179.634,72.441Z" fill="none" stroke="#303030" stroke-miterlimit="10" stroke-width="3.901"/>
            <path id="Path_34" data-name="Path 34" d="M434.066,720.708c-67.7,0-131.359-25.666-179.233-72.271s-74.241-108.572-74.241-174.482v-20.61c0-65.91,26.366-127.876,74.241-174.481s111.528-72.273,179.233-72.273h492.69c67.705,0,131.358,25.667,179.234,72.273s74.24,108.571,74.24,174.481v20.609c0,65.91-26.366,127.876-74.24,174.482s-111.527,72.271-179.234,72.271Z" fill="none" stroke="#303030" stroke-miterlimit="10" stroke-width="3.859"/>
            <path id="Path_35" data-name="Path 35" d="M434.076,720.131c-67.554,0-131.065-25.607-178.833-72.1S181.169,539.71,181.169,473.953V453.347c0-65.757,26.307-127.578,74.074-174.074s111.279-72.1,178.833-72.1H926.745c67.554,0,131.064,25.607,178.832,72.1s74.075,108.318,74.075,174.074v20.606c0,65.757-26.308,127.578-74.075,174.074s-111.278,72.1-178.832,72.1H434.076Z" fill="none" stroke="#303030" stroke-miterlimit="10" stroke-width="3.817"/>
            <path id="Path_36" data-name="Path 36" d="M434.087,719.554c-67.4,0-130.772-25.547-178.432-71.936s-73.909-108.063-73.909-173.667v-20.6c0-65.6,26.248-127.279,73.909-173.667s111.029-71.935,178.432-71.935H926.734c67.4,0,130.77,25.547,178.431,71.935s73.907,108.064,73.907,173.667v20.6c0,65.6-26.249,127.279-73.91,173.666s-111.029,71.936-178.431,71.936H434.087Z" fill="none" stroke="#303030" stroke-miterlimit="10" stroke-width="3.775"/>
            <path id="Path_37" data-name="Path 37" d="M434.1,718.976c-67.251,0-130.478-25.486-178.031-71.766S182.324,539.4,182.324,473.95v-20.6c0-65.449,26.189-126.98,73.744-173.26s110.78-71.767,178.031-71.767H926.725c67.251,0,130.476,25.487,178.03,71.767S1178.5,387.9,1178.5,453.35v20.6c0,65.449-26.189,126.98-73.744,173.26s-110.779,71.766-178.03,71.766Z" fill="none" stroke="#303030" stroke-miterlimit="10" stroke-width="3.732"/>
            <path id="Path_38" data-name="Path 38" d="M434.109,718.4c-67.1,0-130.184-25.426-177.631-71.6S182.9,539.244,182.9,473.948v-20.6c0-65.3,26.13-126.682,73.577-172.853s110.531-71.6,177.631-71.6h492.6c67.1,0,130.183,25.427,177.63,71.6s73.578,107.557,73.578,172.853v20.6c0,65.3-26.13,126.682-73.578,172.853s-110.532,71.6-177.63,71.6Z" fill="none" stroke="#303030" stroke-miterlimit="10" stroke-width="3.69"/>
            <path id="Path_39" data-name="Path 39" d="M434.12,717.821c-66.949,0-129.891-25.367-177.23-71.429s-73.411-107.3-73.411-172.445V453.353c0-65.141,26.071-126.384,73.411-172.445s110.281-71.429,177.23-71.429H926.7c66.949,0,129.89,25.367,177.23,71.429s73.412,107.3,73.412,172.445v20.594c0,65.141-26.072,126.384-73.412,172.446S993.651,717.822,926.7,717.822H434.12Z" fill="none" stroke="#303030" stroke-miterlimit="10" stroke-width="3.648"/>
            <path id="Path_40" data-name="Path 40" d="M434.131,717.243c-66.8,0-129.6-25.307-176.829-71.26s-73.245-107.05-73.245-172.038V453.354c0-64.988,26.012-126.085,73.245-172.038s110.031-71.261,176.829-71.261h492.56c66.8,0,129.6,25.308,176.829,71.261s73.245,107.051,73.245,172.038v20.591c0,64.988-26.012,126.086-73.245,172.039s-110.035,71.259-176.829,71.259Z" fill="none" stroke="#303030" stroke-miterlimit="10" stroke-width="3.606"/>
            <path id="Path_41" data-name="Path 41" d="M434.141,716.666c-66.646,0-129.3-25.248-176.428-71.091s-73.079-106.8-73.079-171.631V453.356c0-64.833,25.954-125.786,73.079-171.63S367.5,210.634,434.141,210.634H926.68c66.646,0,129.3,25.248,176.428,71.092s73.08,106.8,73.08,171.63v20.588c0,64.833-25.954,125.786-73.08,171.631S993.326,716.666,926.68,716.666Z" fill="none" stroke="#303030" stroke-miterlimit="10" stroke-width="3.563"/>
            <path id="Path_42" data-name="Path 42" d="M434.152,716.089c-66.495,0-129.01-25.188-176.028-70.923S185.21,538.622,185.21,473.942V453.357c0-64.68,25.894-125.488,72.913-171.223s109.534-70.923,176.029-70.923H926.669c66.495,0,129.009,25.187,176.028,70.923s72.914,106.543,72.914,171.223v20.585c0,64.68-25.9,125.488-72.914,171.224s-109.533,70.922-176.028,70.922H434.152Z" fill="none" stroke="#303030" stroke-miterlimit="10" stroke-width="3.521"/>
            <path id="Path_43" data-name="Path 43" d="M434.163,715.511c-66.344,0-128.716-25.126-175.627-70.754s-72.747-106.289-72.747-170.816V453.359c0-64.526,25.836-125.189,72.747-170.816s109.284-70.754,175.627-70.754h492.5c66.343,0,128.715,25.128,175.626,70.754s72.748,106.29,72.748,170.816v20.582c0,64.526-25.835,125.189-72.748,170.816S993,715.511,926.658,715.511Z" fill="none" stroke="#303030" stroke-miterlimit="10" stroke-width="3.479"/>
            <path id="Path_44" data-name="Path 44" d="M434.174,714.934c-66.192,0-128.423-25.067-175.227-70.585S186.366,538.313,186.366,473.94V453.36c0-64.371,25.776-124.891,72.581-170.409s109.036-70.585,175.227-70.585H926.647c66.192,0,128.422,25.067,175.226,70.585s72.582,106.037,72.582,170.409v20.579c0,64.371-25.777,124.892-72.582,170.409S992.84,714.934,926.647,714.934Z" fill="none" stroke="#303030" stroke-miterlimit="10" stroke-width="3.437"/>
            <path id="Path_45" data-name="Path 45" d="M434.185,714.357c-66.041,0-128.129-25.007-174.826-70.417s-72.415-105.783-72.415-170V453.362c0-64.218,25.717-124.593,72.415-170s108.786-70.417,174.826-70.417H926.637c66.04,0,128.128,25.007,174.826,70.417s72.416,105.783,72.416,170v20.576c0,64.218-25.718,124.593-72.416,170s-108.785,70.417-174.826,70.417H434.185Z" fill="none" stroke="#303030" stroke-miterlimit="10" stroke-width="3.394"/>
            <path id="Path_46" data-name="Path 46" d="M434.2,713.779c-65.889,0-127.835-24.948-174.426-70.247s-72.25-105.53-72.25-169.6V453.363c0-64.064,25.659-124.294,72.25-169.594S368.307,213.521,434.2,213.521H926.625c65.889,0,127.834,24.948,174.425,70.248s72.25,105.53,72.25,169.594v20.573c0,64.064-25.659,124.294-72.25,169.594s-108.536,70.247-174.425,70.247H434.2Z" fill="none" stroke="#303030" stroke-miterlimit="10" stroke-width="3.352"/>
            <path id="Path_47" data-name="Path 47" d="M434.207,713.2c-65.738,0-127.542-24.888-174.026-70.079S188.1,537.845,188.1,473.935v-20.57c0-63.911,25.6-124,72.084-169.187S368.469,214.1,434.207,214.1H926.614c65.738,0,127.541,24.888,174.025,70.08s72.084,105.277,72.084,169.187v20.57c0,63.911-25.6,124-72.084,169.187S992.349,713.2,926.614,713.2Z" fill="none" stroke="#303030" stroke-miterlimit="10" stroke-width="3.31"/>
            <path id="Path_48" data-name="Path 48" d="M434.218,712.624c-65.587,0-127.248-24.828-173.625-69.91s-71.917-105.023-71.917-168.78V453.367c0-63.757,25.541-123.7,71.917-168.78s108.038-69.91,173.625-69.91H926.6c65.586,0,127.247,24.828,173.624,69.91s71.918,105.023,71.918,168.78v20.567c0,63.756-25.542,123.7-71.918,168.78S992.19,712.624,926.6,712.624Z" fill="none" stroke="#303030" stroke-miterlimit="10" stroke-width="3.268"/>
            <path id="Path_49" data-name="Path 49" d="M434.229,712.046c-65.435,0-126.955-24.767-173.224-69.741s-71.752-104.77-71.752-168.373V453.368c0-63.6,25.483-123.4,71.752-168.372s107.788-69.743,173.224-69.743H926.592c65.435,0,126.955,24.769,173.224,69.743s71.751,104.769,71.751,168.372v20.564c0,63.6-25.482,123.4-71.751,168.373s-107.784,69.741-173.224,69.741Z" fill="none" stroke="#303030" stroke-miterlimit="10" stroke-width="3.225"/>
            <path id="Path_50" data-name="Path 50" d="M434.241,711.469c-65.284,0-126.661-24.708-172.824-69.572S189.831,537.38,189.831,473.93V453.37c0-63.449,25.423-123.1,71.586-167.966s107.539-69.573,172.824-69.573h492.34c65.284,0,126.66,24.708,172.824,69.573S1170.99,389.92,1170.99,453.37v20.56c0,63.449-25.423,123.1-71.585,167.966s-107.54,69.572-172.824,69.572Z" fill="none" stroke="#303030" stroke-miterlimit="10" stroke-width="3.183"/>
            <path id="Path_51" data-name="Path 51" d="M434.252,710.892c-65.133,0-126.367-24.648-172.423-69.4s-71.421-104.263-71.421-167.559V453.371c0-63.3,25.364-122.8,71.42-167.558s107.291-69.406,172.424-69.406H926.57c65.132,0,126.367,24.648,172.422,69.4s71.421,104.263,71.421,167.558v20.557c0,63.294-25.365,122.8-71.421,167.558s-107.29,69.4-172.422,69.4H434.252Z" fill="none" stroke="#303030" stroke-miterlimit="10" stroke-width="3.141"/>
            <path id="Path_52" data-name="Path 52" d="M434.263,710.314c-64.982,0-126.074-24.588-172.023-69.235s-71.254-104.01-71.254-167.152V453.373c0-63.142,25.3-122.5,71.254-167.151s107.041-69.236,172.023-69.236h492.3c64.982,0,126.073,24.588,172.022,69.236s71.254,104.01,71.254,167.151v20.554c0,63.142-25.305,122.5-71.254,167.151s-107.04,69.235-172.022,69.235h-492.3Z" fill="none" stroke="#303030" stroke-miterlimit="10" stroke-width="3.099"/>
            <path id="Path_53" data-name="Path 53" d="M434.274,709.737c-64.831,0-125.781-24.529-171.623-69.068s-71.088-103.756-71.088-166.744V453.374c0-62.987,25.246-122.2,71.088-166.744s106.792-69.067,171.623-69.067H926.548c64.831,0,125.78,24.529,171.622,69.067s71.089,103.756,71.089,166.744v20.551c0,62.988-25.247,122.2-71.089,166.744s-106.79,69.068-171.622,69.068Z" fill="none" stroke="#303030" stroke-miterlimit="10" stroke-width="3.056"/>
            <path id="Path_54" data-name="Path 54" d="M434.285,709.159c-64.679,0-125.488-24.468-171.222-68.9s-70.923-103.5-70.923-166.337V453.375c0-62.834,25.187-121.906,70.923-166.336s106.543-68.9,171.222-68.9H926.536c64.679,0,125.487,24.469,171.222,68.9s70.924,103.5,70.924,166.336v20.548c0,62.834-25.187,121.906-70.924,166.337s-106.542,68.9-171.222,68.9H434.285Z" fill="none" stroke="#303030" stroke-miterlimit="10" stroke-width="3.014"/>
            <path id="Path_55" data-name="Path 55" d="M434.3,708.581c-64.528,0-125.194-24.408-170.822-68.729s-70.76-103.252-70.76-165.93V453.378c0-62.68,25.129-121.608,70.757-165.929s106.293-68.73,170.822-68.73H926.525c64.528,0,125.193,24.409,170.822,68.73S1168.1,390.7,1168.1,453.378v20.545c0,62.68-25.129,121.609-70.757,165.93s-106.292,68.729-170.82,68.729Z" fill="none" stroke="#303030" stroke-miterlimit="10" stroke-width="2.972"/>
            <path id="Path_56" data-name="Path 56" d="M434.308,708c-64.377,0-124.9-24.348-170.422-68.561s-70.59-103-70.59-165.522V453.379c0-62.526,25.07-121.31,70.59-165.522S369.931,219.3,434.308,219.3H926.514c64.377,0,124.9,24.349,170.421,68.561s70.591,103,70.591,165.522v20.541c0,62.526-25.07,121.31-70.591,165.522S990.9,708,926.514,708Z" fill="none" stroke="#303030" stroke-miterlimit="10" stroke-width="2.93"/>
            <path id="Path_57" data-name="Path 57" d="M434.319,707.427c-64.226,0-124.607-24.289-170.021-68.392S193.872,536.292,193.872,473.92V453.381c0-62.373,25.011-121.011,70.426-165.114s105.8-68.393,170.021-68.393H926.5c64.226,0,124.606,24.289,170.021,68.393s70.425,102.743,70.425,165.114v20.538c0,62.373-25.012,121.011-70.425,165.115s-105.8,68.392-170.021,68.392Z" fill="none" stroke="#303030" stroke-miterlimit="10" stroke-width="2.887"/>
            <path id="Path_58" data-name="Path 58" d="M434.33,706.849c-64.074,0-124.314-24.229-169.621-68.223S194.45,536.136,194.45,473.918V453.382c0-62.218,24.952-120.713,70.259-164.708S370.255,220.45,434.33,220.45H926.491c64.074,0,124.313,24.229,169.621,68.224s70.259,102.489,70.259,164.708v20.535c0,62.218-24.952,120.713-70.259,164.708s-105.546,68.223-169.621,68.223H434.33Z" fill="none" stroke="#303030" stroke-miterlimit="10" stroke-width="2.845"/>
            <path id="Path_59" data-name="Path 59" d="M434.342,706.272c-63.923,0-124.02-24.168-169.221-68.055s-70.093-102.236-70.093-164.3V453.384c0-62.065,24.892-120.414,70.093-164.3s105.3-68.055,169.221-68.055H926.48c63.923,0,124.019,24.169,169.22,68.055s70.094,102.236,70.094,164.3v20.532c0,62.065-24.892,120.414-70.094,164.3s-105.3,68.055-169.22,68.055Z" fill="none" stroke="#303030" stroke-miterlimit="10" stroke-width="2.803"/>
            <path id="Path_60" data-name="Path 60" d="M434.353,705.7c-63.772,0-123.727-24.109-168.821-67.887S195.6,535.825,195.6,473.914V453.386c0-61.911,24.835-120.116,69.928-163.894s105.048-67.887,168.821-67.887h492.12c63.772,0,123.727,24.11,168.82,67.887s69.928,101.983,69.928,163.894v20.529c0,61.911-24.835,120.117-69.928,163.894S990.242,705.7,926.469,705.7Z" fill="none" stroke="#303030" stroke-miterlimit="10" stroke-width="2.761"/>
            <path id="Path_61" data-name="Path 61" d="M434.365,705.117c-63.62,0-123.434-24.049-168.42-67.718S196.183,535.67,196.183,473.913V453.387c0-61.757,24.775-119.818,69.762-163.486s104.8-67.718,168.42-67.718H926.457c63.62,0,123.433,24.049,168.419,67.718s69.763,101.729,69.763,163.486v20.525c0,61.757-24.776,119.818-69.763,163.486s-104.8,67.718-168.419,67.718Z" fill="none" stroke="#303030" stroke-miterlimit="10" stroke-width="2.718"/>
            <path id="Path_62" data-name="Path 62" d="M434.376,704.539c-63.469,0-123.14-23.989-168.02-67.549s-69.6-101.476-69.6-163.079V453.389c0-61.6,24.716-119.519,69.6-163.079s104.549-67.549,168.019-67.549h492.07c63.469,0,123.14,23.989,168.019,67.55s69.6,101.475,69.6,163.078v20.522c0,61.6-24.717,119.52-69.6,163.079s-104.55,67.549-168.02,67.549Z" fill="none" stroke="#303030" stroke-miterlimit="10" stroke-width="2.676"/>
            <path id="Path_63" data-name="Path 63" d="M434.387,703.962c-63.318,0-122.847-23.929-167.62-67.38s-69.43-101.223-69.43-162.672V453.391c0-61.449,24.657-119.221,69.43-162.672s104.3-67.38,167.619-67.38H926.434c63.318,0,122.846,23.929,167.619,67.381s69.431,101.223,69.431,162.672V473.91c0,61.449-24.658,119.221-69.431,162.672s-104.3,67.379-167.619,67.379Z" fill="none" stroke="#303030" stroke-miterlimit="10" stroke-width="2.634"/>
            <path id="Path_64" data-name="Path 64" d="M434.4,703.385c-63.167,0-122.553-23.87-167.219-67.212S197.916,535.2,197.916,473.908V453.392c0-61.3,24.6-118.922,69.264-162.265s104.052-67.211,167.22-67.211H926.423c63.166,0,122.552,23.87,167.219,67.212s69.265,100.97,69.265,162.265v20.515c0,61.295-24.6,118.922-69.265,162.266S989.59,703.385,926.423,703.385Z" fill="none" stroke="#303030" stroke-miterlimit="10" stroke-width="2.592"/>
            <path id="Path_65" data-name="Path 65" d="M434.41,702.807c-63.016,0-122.26-23.809-166.819-67.042s-69.1-100.717-69.1-161.859V453.394c0-61.142,24.54-118.624,69.1-161.858s103.8-67.043,166.819-67.043h492c63.016,0,122.259,23.81,166.819,67.043s69.1,100.715,69.1,161.858v20.512c0,61.141-24.54,118.624-69.1,161.859s-103.8,67.042-166.819,67.042Z" fill="none" stroke="#303030" stroke-miterlimit="10" stroke-width="2.549"/>
            <path id="Path_66" data-name="Path 66" d="M434.422,702.23c-62.865,0-121.967-23.75-166.418-66.874S199.07,534.892,199.07,473.9V453.4c0-60.988,24.481-118.326,68.933-161.45s103.554-66.88,166.419-66.88H926.4c62.865,0,121.966,23.75,166.418,66.875s68.933,100.462,68.933,161.45v20.5c0,60.988-24.482,118.326-68.933,161.451S989.262,702.23,926.4,702.23Z" fill="none" stroke="#303030" stroke-miterlimit="10" stroke-width="2.507"/>
            <path id="Path_67" data-name="Path 67" d="M434.433,701.653c-62.714,0-121.673-23.69-166.018-66.706S199.648,534.738,199.648,473.9V453.4c0-60.834,24.422-118.027,68.767-161.043s103.3-66.706,166.018-66.706H926.388c62.714,0,121.673,23.69,166.018,66.706s68.768,100.209,68.768,161.043v20.5c0,60.834-24.423,118.028-68.768,161.043s-103.3,66.706-166.018,66.706H434.433Z" fill="none" stroke="#303030" stroke-miterlimit="10" stroke-width="2.465"/>
            <path id="Path_68" data-name="Path 68" d="M434.445,701.074c-62.563,0-121.38-23.629-165.619-66.537s-68.6-99.956-68.6-160.636V453.4c0-60.681,24.363-117.729,68.6-160.636s103.056-66.537,165.619-66.537H926.377c62.562,0,121.379,23.63,165.618,66.537s68.6,99.956,68.6,160.636v20.5c0,60.68-24.363,117.729-68.6,160.636s-103.056,66.537-165.618,66.537Z" fill="none" stroke="#303030" stroke-miterlimit="10" stroke-width="2.422"/>
            <path id="Path_69" data-name="Path 69" d="M434.457,700.5c-62.411,0-121.087-23.57-165.218-66.368S200.8,534.426,200.8,473.9V453.4c0-60.526,24.3-117.431,68.436-160.229S372.046,226.8,434.457,226.8H926.365c62.411,0,121.086,23.57,165.218,66.369s68.436,99.7,68.436,160.229v20.5c0,60.526-24.305,117.431-68.436,160.229S988.776,700.5,926.365,700.5Z" fill="none" stroke="#303030" stroke-miterlimit="10" stroke-width="2.38"/>
            <path id="Path_70" data-name="Path 70" d="M434.468,699.92c-62.26,0-120.793-23.51-164.818-66.2s-68.27-99.449-68.27-159.82V453.4c0-60.373,24.246-117.132,68.27-159.822s102.558-66.2,164.818-66.2H926.354c62.261,0,120.792,23.511,164.818,66.2s68.27,99.449,68.27,159.822v20.5c0,60.374-24.245,117.132-68.271,159.823s-102.553,66.2-164.817,66.2Z" fill="none" stroke="#303030" stroke-miterlimit="10" stroke-width="2.338"/>
            <path id="Path_71" data-name="Path 71" d="M434.48,699.342c-62.109,0-120.5-23.45-164.418-66.031s-68.1-99.2-68.1-159.415V453.4c0-60.219,24.187-116.833,68.1-159.415s102.309-66.032,164.418-66.032H926.342c62.109,0,120.5,23.451,164.417,66.032s68.1,99.2,68.1,159.415v20.5c0,60.219-24.187,116.834-68.1,159.415s-102.31,66.031-164.417,66.031Z" fill="none" stroke="#303030" stroke-miterlimit="10" stroke-width="2.296"/>
            <path id="Path_72" data-name="Path 72" d="M434.492,698.765c-61.958,0-120.207-23.39-164.019-65.863s-67.938-98.943-67.938-159.008V453.406c0-60.065,24.128-116.535,67.938-159.008s102.06-65.863,164.019-65.863H926.33c61.958,0,120.207,23.391,164.018,65.863s67.939,98.943,67.939,159.008v20.488c0,60.066-24.128,116.536-67.939,159.008S988.29,698.765,926.33,698.765Z" fill="none" stroke="#303030" stroke-miterlimit="10" stroke-width="2.253"/>
            <path id="Path_73" data-name="Path 73" d="M434.5,698.188c-61.807,0-119.915-23.331-163.618-65.694s-67.773-98.689-67.773-158.6V453.408c0-59.911,24.069-116.236,67.773-158.6S372.7,229.113,434.5,229.113H926.318c61.807,0,119.914,23.331,163.618,65.694s67.774,98.689,67.774,158.6v20.485c0,59.912-24.07,116.237-67.774,158.6s-101.811,65.694-163.618,65.694Z" fill="none" stroke="#303030" stroke-miterlimit="10" stroke-width="2.211"/>
            <path id="Path_74" data-name="Path 74" d="M434.515,697.61c-61.655,0-119.622-23.27-163.218-65.525S203.69,533.648,203.69,473.89V453.409c0-59.757,24.01-115.939,67.607-158.194S372.86,229.69,434.515,229.69H926.307c61.656,0,119.621,23.271,163.218,65.526s67.607,98.435,67.607,158.194v20.48c0,59.758-24.01,115.939-67.607,158.2s-101.562,65.52-163.218,65.52Z" fill="none" stroke="#303030" stroke-miterlimit="10" stroke-width="2.169"/>
            <path id="Path_75" data-name="Path 75" d="M434.527,697.032c-61.5,0-119.328-23.211-162.818-65.357s-67.44-98.182-67.44-157.786V453.411c0-59.6,23.952-115.64,67.441-157.787s101.313-65.356,162.817-65.356H926.295c61.5,0,119.327,23.211,162.817,65.357s67.442,98.182,67.442,157.787V473.89c0,59.6-23.953,115.64-67.442,157.787s-101.318,65.355-162.817,65.355Z" fill="none" stroke="#303030" stroke-miterlimit="10" stroke-width="2.127"/>
            <path id="Path_76" data-name="Path 76" d="M434.539,696.455c-61.354,0-119.035-23.151-162.418-65.189s-67.275-97.93-67.275-157.379V453.413c0-59.45,23.892-115.342,67.275-157.379s101.065-65.188,162.418-65.188H926.283c61.354,0,119.035,23.151,162.417,65.188s67.277,97.93,67.277,157.379v20.474c0,59.45-23.893,115.342-67.277,157.379s-101.064,65.189-162.417,65.189Z" fill="none" stroke="#303030" stroke-miterlimit="10" stroke-width="2.085"/>
            <path id="Path_77" data-name="Path 77" d="M434.55,695.877c-61.2,0-118.742-23.09-162.018-65.019s-67.11-97.676-67.11-156.972V453.415c0-59.3,23.833-115.044,67.11-156.972s100.815-65.02,162.018-65.02H926.271c61.2,0,118.741,23.091,162.017,65.02s67.11,97.676,67.11,156.972v20.471c0,59.3-23.833,115.044-67.11,156.972s-100.812,65.019-162.017,65.019Z" fill="none" stroke="#303030" stroke-miterlimit="10" stroke-width="2.042"/>
            <path id="Path_78" data-name="Path 78" d="M434.562,695.3c-61.051,0-118.448-23.031-161.619-64.851S206,533.026,206,473.883V453.416c0-59.142,23.774-114.745,66.944-156.566S373.511,232,434.562,232h491.7c61.051,0,118.448,23.031,161.617,64.851s66.945,97.423,66.945,156.566v20.467c0,59.142-23.775,114.746-66.945,156.566s-100.57,64.85-161.62,64.85Z" fill="none" stroke="#303030" stroke-miterlimit="10" stroke-width="2"/>
          </g>
        </g>
        <path id="Path_87" data-name="Path 87" d="M622,300.5a3,3,0,0,1-3,3H599a3,3,0,0,1-3-3v-67a3,3,0,0,1,3-3h20a3,3,0,0,1,3,3Z" transform="translate(763 1300)" fill="none"/>
        <path id="Path_88" data-name="Path 88" d="M652.333,300.5a3,3,0,0,1-3,3h-20a3,3,0,0,1-3-3v-67a3,3,0,0,1,3-3h20a3,3,0,0,1,3,3Z" transform="translate(763 1300)" fill="none"/>
        <path id="Path_89" data-name="Path 89" d="M682.667,300.5a3,3,0,0,1-3,3h-20a3,3,0,0,1-3-3v-67a3,3,0,0,1,3-3h20a3,3,0,0,1,3,3Z" transform="translate(763 1300)" fill="none"/>
        <path id="Path_90" data-name="Path 90" d="M713,300.5a3,3,0,0,1-3,3H690a3,3,0,0,1-3-3v-67a3,3,0,0,1,3-3h20a3,3,0,0,1,3,3Z" transform="translate(763 1300)" fill="none"/>
        <path id="Path_91" data-name="Path 91" d="M743.333,300.5a3,3,0,0,1-3,3h-20a3,3,0,0,1-3-3v-67a3,3,0,0,1,3-3h20a3,3,0,0,1,3,3Z" transform="translate(763 1300)" fill="none"/>
        <path id="Path_92" data-name="Path 92" d="M773.667,300.5a3,3,0,0,1-3,3h-20a3,3,0,0,1-3-3v-67a3,3,0,0,1,3-3h20a3,3,0,0,1,3,3Z" transform="translate(763 1300)" fill="none"/>
        <path id="Path_93" data-name="Path 93" d="M804,300.5a3,3,0,0,1-3,3H781a3,3,0,0,1-3-3v-67a3,3,0,0,1,3-3h20a3,3,0,0,1,3,3Z" transform="translate(763 1300)" fill="none"/>
        <rect id="Rectangle_9" data-name="Rectangle 9" width="830" height="362" rx="181" transform="translate(1048 1601)" fill="rgba(253,122,122,0.45)"/>
      </g>
    </g>
    <path id="Welcome_to_OUr_Virtual_Casino_" data-name="Welcome to OUr Virtual Casino " d="M2.052-46.17H7.41L12.369-13l6.213-33h4.56l6.27,33.174L34.257-46.17H39.5L32.091,0H27.417L20.976-34.2,14.478,0h-4.9Zm43.092,0h17.9v4.788H51.585v15.276h9.291v4.56H51.585V-4.617H63.156V0H45.144Zm23.2,0h6.441V-4.617h11.8V0H68.343ZM102.2.513q-6.84,0-9.633-4.075T89.775-14.82v-16.3q0-7.581,2.736-11.514t9.69-3.933q6.213,0,8.921,3.363t2.707,9.918v3.648h-6.1v-3.249a31.861,31.861,0,0,0-.285-4.9,4.492,4.492,0,0,0-1.453-2.736,5.584,5.584,0,0,0-3.733-1.026,5.84,5.84,0,0,0-3.9,1.111,5.327,5.327,0,0,0-1.681,3.078,27.655,27.655,0,0,0-.4,5.272v18.3a21.032,21.032,0,0,0,.57,5.529A4.862,4.862,0,0,0,98.7-5.415a6.373,6.373,0,0,0,3.563.855,5.3,5.3,0,0,0,3.648-1.083,4.948,4.948,0,0,0,1.51-2.964,32.8,32.8,0,0,0,.313-5.13v-3.42h6.1v3.42q0,6.9-2.593,10.573T102.2.513Zm29.583,0q-6.783,0-9.718-3.848T119.13-14.478v-17.5q0-7.182,2.964-10.887t9.69-3.705q6.726,0,9.661,3.734t2.936,10.858v17.556q0,7.182-2.964,11.058T131.784.513Zm0-5.073q3.591,0,4.845-2.109a12.788,12.788,0,0,0,1.254-6.384V-33.288q0-4.218-1.254-6.242t-4.845-2.023q-3.648,0-4.9,2.023t-1.254,6.242v20.235a12.788,12.788,0,0,0,1.254,6.384Q128.136-4.56,131.784-4.56Zm19.665-41.61h6.327l8.151,37.449,8.208-37.449h6.27L181.26,0h-5.187l-.513-33.516L167.751,0H164.1l-7.752-33.516L155.838,0h-5.244Zm36.879,0h17.9v4.788H194.769v15.276h9.291v4.56h-9.291V-4.617H206.34V0H188.328Zm41.325,4.788h-7.809V-46.17h21.831v4.788h-7.581V0h-6.441ZM259.92.513q-6.783,0-9.719-3.848t-2.936-11.144v-17.5q0-7.182,2.964-10.887t9.69-3.705q6.726,0,9.661,3.734t2.935,10.858v17.556q0,7.182-2.964,11.058T259.92.513Zm0-5.073q3.591,0,4.845-2.109a12.788,12.788,0,0,0,1.254-6.384V-33.288q0-4.218-1.254-6.242t-4.845-2.023q-3.648,0-4.9,2.023t-1.254,6.242v20.235a12.788,12.788,0,0,0,1.254,6.384Q256.272-4.56,259.92-4.56ZM303.7.513q-6.783,0-9.719-3.848t-2.936-11.144v-17.5q0-7.182,2.964-10.887t9.69-3.705q6.726,0,9.661,3.734t2.935,10.858v17.556q0,7.182-2.964,11.058T303.7.513Zm0-5.073q3.591,0,4.845-2.109a12.788,12.788,0,0,0,1.254-6.384V-33.288q0-4.218-1.254-6.242T303.7-41.553q-3.648,0-4.9,2.023t-1.254,6.242v20.235a12.788,12.788,0,0,0,1.254,6.384Q300.048-4.56,303.7-4.56ZM334.533.513q-4.845,0-7.552-1.938a9.857,9.857,0,0,1-3.734-5.415,31.345,31.345,0,0,1-1.026-8.721V-46.17h6.156v30.894A20.266,20.266,0,0,0,329.6-7.3q1.226,2.736,4.931,2.736T339.464-7.3a20.266,20.266,0,0,0,1.225-7.98V-46.17h6.1v30.609a31.345,31.345,0,0,1-1.026,8.721,9.911,9.911,0,0,1-3.7,5.415Q339.378.513,334.533.513ZM353.571-46.17h9.291q7.011,0,10.289,2.879t3.277,9.376q0,8.892-5.7,10.773L377.283,0H371.07l-6.042-21.66h-5.016V0h-6.441Zm8.892,19.893q4.161,0,5.957-1.653t1.8-5.985a12.806,12.806,0,0,0-.627-4.474,4.292,4.292,0,0,0-2.223-2.394,10.609,10.609,0,0,0-4.5-.769h-2.85v15.276ZM393.927-46.17h6.042l7.3,34.029,6.954-34.029h5.871L409.887,0h-5.643Zm31.407,0h6.327V0h-6.327Zm13.794,0h9.291q7.011,0,10.289,2.879t3.277,9.376q0,8.892-5.7,10.773L462.84,0h-6.213l-6.042-21.66h-5.016V0h-6.441Zm8.892,19.893q4.161,0,5.957-1.653t1.8-5.985a12.806,12.806,0,0,0-.627-4.474,4.292,4.292,0,0,0-2.223-2.394,10.609,10.609,0,0,0-4.5-.769h-2.85v15.276Zm25.764-15.1h-7.809V-46.17h21.831v4.788h-7.581V0h-6.441ZM504.165.513q-4.845,0-7.552-1.938a9.857,9.857,0,0,1-3.734-5.415,31.345,31.345,0,0,1-1.026-8.721V-46.17h6.156v30.894a20.266,20.266,0,0,0,1.225,7.98q1.226,2.736,4.931,2.736T509.1-7.3a20.266,20.266,0,0,0,1.225-7.98V-46.17h6.1v30.609a31.344,31.344,0,0,1-1.026,8.721,9.911,9.911,0,0,1-3.7,5.415Q509.01.513,504.165.513ZM530.5-46.17h6.213L546.573,0h-6.1l-2.109-11.628h-9.4L526.737,0H520.7Zm7.011,29.925L533.634-37.05l-3.819,20.805ZM551.247-46.17h6.441V-4.617h11.8V0h-18.24ZM598.5.513q-6.84,0-9.633-4.075T586.074-14.82v-16.3q0-7.581,2.736-11.514t9.69-3.933q6.213,0,8.921,3.363t2.707,9.918v3.648h-6.1v-3.249a31.862,31.862,0,0,0-.285-4.9,4.492,4.492,0,0,0-1.453-2.736,5.584,5.584,0,0,0-3.734-1.026,5.84,5.84,0,0,0-3.9,1.111,5.327,5.327,0,0,0-1.682,3.078,27.656,27.656,0,0,0-.4,5.272v18.3a21.032,21.032,0,0,0,.57,5.529,4.862,4.862,0,0,0,1.852,2.85,6.373,6.373,0,0,0,3.563.855,5.3,5.3,0,0,0,3.648-1.083,4.947,4.947,0,0,0,1.51-2.964,32.8,32.8,0,0,0,.313-5.13v-3.42h6.1v3.42q0,6.9-2.594,10.573T598.5.513ZM623.58-46.17h6.213L639.654,0h-6.1l-2.109-11.628h-9.4L619.818,0h-6.042Zm7.011,29.925L626.715-37.05,622.9-16.245ZM655.215.513q-5.814,0-8.864-3.591t-3.391-9.861l5.7-1.539A17.791,17.791,0,0,0,650.4-7.3a5.03,5.03,0,0,0,4.817,2.736,4.893,4.893,0,0,0,3.79-1.4,5.735,5.735,0,0,0,1.283-4.018,8.656,8.656,0,0,0-1.2-4.731,20.3,20.3,0,0,0-3.819-4.161l-7.752-6.84a12.958,12.958,0,0,1-3.392-4.417,14.18,14.18,0,0,1-1.055-5.785q0-5.073,2.907-7.866a10.958,10.958,0,0,1,7.923-2.793q5.472,0,8.265,2.907t3.363,9.006l-5.472,1.482a14.565,14.565,0,0,0-1.568-6.242Q657.21-41.61,653.9-41.61a5.159,5.159,0,0,0-3.762,1.283,5.073,5.073,0,0,0-1.311,3.791,7.8,7.8,0,0,0,.684,3.448,9.24,9.24,0,0,0,2.337,2.822l7.809,6.84a23.22,23.22,0,0,1,4.816,5.814,14.078,14.078,0,0,1,1.8,7.125A10.636,10.636,0,0,1,663.2-2.451,11.025,11.025,0,0,1,655.215.513ZM671.631-46.17h6.327V0h-6.327Zm13.794,0h4.389L702.924-15.5V-46.17h5.358V0h-4.1L690.9-31.521V0h-5.472ZM727.32.513q-6.783,0-9.719-3.848t-2.935-11.144v-17.5q0-7.182,2.964-10.887t9.69-3.705q6.726,0,9.661,3.734t2.935,10.858v17.556q0,7.182-2.964,11.058T727.32.513Zm0-5.073q3.591,0,4.845-2.109a12.788,12.788,0,0,0,1.254-6.384V-33.288q0-4.218-1.254-6.242t-4.845-2.023q-3.648,0-4.9,2.023t-1.254,6.242v20.235a12.788,12.788,0,0,0,1.254,6.384Q723.672-4.56,727.32-4.56Z" transform="translate(1802.673 1540)" fill="#fff"/>
    <path id="With_SBMM" data-name="With SBMM" d="M1.4-31.59H5.07l3.393,22.7,4.251-22.581h3.12l4.29,22.7L23.439-31.59h3.588L21.957,0h-3.2L14.352-23.4,9.906,0H6.552Zm29.718,0h4.329V0H31.122Zm12.909,3.276H38.688V-31.59H53.625v3.276H48.438V0H44.031ZM56.667-31.59h4.407v13.65h8.112V-31.59h4.407V0H69.186V-14.781H61.074V0H56.667ZM94.926.351a7.513,7.513,0,0,1-6.064-2.457,11.07,11.07,0,0,1-2.32-6.747l3.9-1.053A12.172,12.172,0,0,0,91.63-4.992a3.442,3.442,0,0,0,3.3,1.872,3.348,3.348,0,0,0,2.593-.956A3.924,3.924,0,0,0,98.4-6.825a5.922,5.922,0,0,0-.819-3.237,13.885,13.885,0,0,0-2.613-2.847l-5.3-4.68a8.866,8.866,0,0,1-2.32-3.023,9.7,9.7,0,0,1-.722-3.958,7.113,7.113,0,0,1,1.989-5.382,7.5,7.5,0,0,1,5.421-1.911,7.49,7.49,0,0,1,5.655,1.989q1.911,1.989,2.3,6.162L98.241-22.7a9.966,9.966,0,0,0-1.073-4.271,3.327,3.327,0,0,0-3.139-1.5,3.53,3.53,0,0,0-2.574.878,3.471,3.471,0,0,0-.9,2.594,5.337,5.337,0,0,0,.468,2.359,6.322,6.322,0,0,0,1.6,1.93l5.343,4.68a15.887,15.887,0,0,1,3.3,3.978,9.632,9.632,0,0,1,1.229,4.875,7.277,7.277,0,0,1-2.106,5.5A7.544,7.544,0,0,1,94.926.351Zm11-31.941h7.254q4.29,0,6.357,1.931t2.067,5.986q0,6.045-4.524,6.669a6.387,6.387,0,0,1,4.1,2.632,9.711,9.711,0,0,1,1.287,5.363,9.973,9.973,0,0,1-2.009,6.63Q118.443,0,114.348,0h-8.424Zm7.02,13.182q2.73,0,3.783-1.189t1.053-4.076a5.835,5.835,0,0,0-.644-3.1,2.906,2.906,0,0,0-1.931-1.267,19.851,19.851,0,0,0-3.822-.273h-1.053v9.906ZM113.3-3.159a6.219,6.219,0,0,0,3.022-.6,3.253,3.253,0,0,0,1.5-1.852,10.775,10.775,0,0,0,.429-3.393A6.992,6.992,0,0,0,117-13.552a4.989,4.989,0,0,0-4.056-1.5h-2.613V-3.159ZM126.867-31.59H131.2l5.577,25.623,5.616-25.623h4.29L147.264,0h-3.549l-.351-22.932L138.021,0h-2.5l-5.3-22.932L129.87,0h-3.588Zm25.74,0h4.329l5.577,25.623,5.616-25.623h4.29L173,0h-3.549L169.1-22.932,163.761,0h-2.5l-5.3-22.932L155.61,0h-3.588Z" transform="translate(2086.308 1632)" fill="#fff"/>
  </g>
</svg>
