<svg id="Component_4_1" data-name="Component 4 – 1" xmlns="http://www.w3.org/2000/svg" width="58.957" height="86.023" viewBox="0 0 58.957 86.023">
  <defs>
    <style>
      .cls-1 {
        fill: #ffdfba;
      }

      .cls-2 {
        fill: #ffaa64;
      }

      .cls-3 {
        fill: #ffebd2;
      }

      .cls-4 {
        fill: #42434d;
      }

      .cls-5 {
        fill: #ffd6a6;
      }

      .cls-6 {
        fill: #4d4e59;
      }

      .cls-7 {
        fill: #fff3e4;
      }

      .cls-8 {
        fill: #ffbd7b;
      }

      .cls-9 {
        fill: #faa157;
      }
    </style>
  </defs>
  <g id="people" transform="translate(-72.997)">
    <path id="Path_18" data-name="Path 18" class="cls-1" d="M131.026,77.261V84.54a1.483,1.483,0,0,1-1.483,1.483H75.408a1.483,1.483,0,0,1-1.483-1.483V77.261a13.831,13.831,0,0,1,8.113-12.594,21.682,21.682,0,0,1-7.093-8.133,19.6,19.6,0,0,1,1.342-19.387,19.068,19.068,0,0,0,3.2-10.575V18.539A18.539,18.539,0,0,1,98.026,0h8.9a18.539,18.539,0,0,1,18.539,18.539c0,8.507-.208,10.173.818,13.556,1.447,4.783,3.358,5.375,4.831,10.243a19.614,19.614,0,0,1-6.557,21.022l-1.643,1.307A13.831,13.831,0,0,1,131.026,77.261Z"/>
    <path id="Path_19" data-name="Path 19" class="cls-2" d="M135.1,352.973v7.279a1.483,1.483,0,0,1-1.483,1.483H79.484A1.483,1.483,0,0,1,78,360.251v-7.279a13.825,13.825,0,0,1,13.825-13.825,7.672,7.672,0,0,0,3.185-.688l.046.1,10.587,8.2a1.483,1.483,0,0,0,1.816,0l10.586-8.2.046-.1a7.672,7.672,0,0,0,3.185.688A13.826,13.826,0,0,1,135.1,352.973Z" transform="translate(-4.076 -275.711)"/>
    <path id="Path_20" data-name="Path 20" class="cls-3" d="M168.305,117.618a1.484,1.484,0,0,1,1.4,1.481v8.878a18.354,18.354,0,1,1-36.708,0v-8.749a1.481,1.481,0,0,1,1.61-1.478,38.373,38.373,0,0,0,25.014-6.4,1.478,1.478,0,0,1,2.253.828,6.919,6.919,0,0,0,6.427,5.437Z" transform="translate(-48.88 -90.503)"/>
    <path id="Path_21" data-name="Path 21" class="cls-4" d="M124.562,63.361l-1.643,1.307a13.79,13.79,0,0,0-5.712-1.231,7.67,7.67,0,0,1-7.681-7.664V54.506l-.028-.069a18.356,18.356,0,0,0,11.337-16.964V28.6a1.484,1.484,0,0,0-1.4-1.481A6.915,6.915,0,0,1,113,21.679a1.478,1.478,0,0,0-2.253-.828,38.375,38.375,0,0,1-25.014,6.4,1.481,1.481,0,0,0-1.61,1.478v8.749A18.356,18.356,0,0,0,95.464,54.438l-.028.069v1.266a7.67,7.67,0,0,1-7.681,7.664,13.79,13.79,0,0,0-5.712,1.231L80.4,63.361a19.614,19.614,0,0,1-4.108-26.213,19.068,19.068,0,0,0,3.2-10.575V18.539A18.54,18.54,0,0,1,98.032,0h8.9A18.54,18.54,0,0,1,125.47,18.539v8.033a19.079,19.079,0,0,0,3.2,10.575,19.615,19.615,0,0,1-4.108,26.213Z" transform="translate(-0.006 0)"/>
    <path id="Path_22" data-name="Path 22" class="cls-5" d="M207.38,296.743a18.4,18.4,0,0,1-14.509,0,11.489,11.489,0,0,0,.21-3.044l.028-.069a18.392,18.392,0,0,0,14.034,0l.028.069A11.486,11.486,0,0,0,207.38,296.743Z" transform="translate(-97.65 -239.193)"/>
    <path id="Path_23" data-name="Path 23" class="cls-6" d="M115.3,2a1.934,1.934,0,0,1-1.043,3.65q-.874-.083-1.771-.083h-8.9A18.54,18.54,0,0,0,85.051,24.1v2.256c0,1.332-.927,1.289-.927,2.368,0,9.793.04,9.173-.1,9.6-1.454,4.279-3.2,4.9-4.618,9.58a19.6,19.6,0,0,0-.732,7.725,1.935,1.935,0,0,1-3.723.909,19.606,19.606,0,0,1,1.342-19.387,19.068,19.068,0,0,0,3.2-10.575V18.539A18.54,18.54,0,0,1,98.028,0h8.9A18.461,18.461,0,0,1,115.3,2Z" transform="translate(-0.002)"/>
    <path id="Path_24" data-name="Path 24" class="cls-7" d="M147.836,169.464a2.831,2.831,0,0,1-2.486,5.038A18.237,18.237,0,0,1,133,157.169V148.42a1.482,1.482,0,0,1,1.611-1.478c.71.065,1.491.115,2.332.141a2.826,2.826,0,0,1,2.731,2.829v4.29A18.289,18.289,0,0,0,147.836,169.464Z" transform="translate(-48.88 -119.695)"/>
    <path id="Path_25" data-name="Path 25" class="cls-8" d="M98.115,340.927a1.179,1.179,0,0,1-.7,2.114,13.822,13.822,0,0,0-13.854,13.825v4.868H79.484A1.483,1.483,0,0,1,78,360.251v-7.279a13.825,13.825,0,0,1,13.825-13.825,7.672,7.672,0,0,0,3.185-.688l.046.1Z" transform="translate(-4.076 -275.711)"/>
    <path id="Path_26" data-name="Path 26" class="cls-9" d="M275.486,340.927a1.179,1.179,0,0,0,.7,2.114,13.822,13.822,0,0,1,13.854,13.825v4.868h4.079a1.483,1.483,0,0,0,1.483-1.483v-7.279a13.825,13.825,0,0,0-13.825-13.825,7.672,7.672,0,0,1-3.185-.688l-.046.1Z" transform="translate(-164.574 -275.711)"/>
  </g>
</svg>
