<?xml version="1.0" encoding="utf-8"?><svg xmlns="http://www.w3.org/2000/svg" version="1.1" baseProfile="tiny" width="800" height="600" viewBox="0 0 800 600"><g><g stroke="#000000" stroke-width=".98" fill="#FFFFFF"><path d="m628.55 593.31l.81-2.92-1.45-4.79-.75-.61-2.84 1.08-.57.98.03 2.46 1.06.32 2.45 5.17 1.26-1.69z" /><path d="m625.34 582.53l-.85-1.11-.77.62-.83.45-.35.81.84 1.17 1.96-1.94z" /><path d="m619.36 571.83l.1-.44-.28-1.01-1.19-1.43-.85.23-.51.88.67.91.47.88 1.59-.02z" /><path d="m621.3 568.16l-.52-2.12.41-1.11-.77-.22-.77 1.08.1 1.3.17.74.04.41.13.58.25.1.96-.76z" /><path d="m201.19 563.8l.25-.5.08-.37-.08-.11-.09.21-.4.65-.34.2-.27-.21-.05.19.1.26.21.03.3-.1.29-.25z" /><path d="m613.17 564.2l-.9-2.05-.4.44-.27 1.09 1.05 1.15 1.13.14-.61-.77z" /><path d="m605.92 545.99l.45-.75-.49-1.38-.48-.07-.49.27-.51.53.06.82.56.7.9-.12z" /><path d="m600.08 516.88l1.46-3.06-.41-1.96-.9-2.01-1.28.66-1.59 1.48-.36.86.5 2.07-.16 2.12 2.12.54.62-.7z" /><path d="m195.3 503.59l.15-.27.1-.53.07-.39-.07-.05-.22.4-.19.6.01.37.15-.13z" /><path d="m603.98 499.92l-.12-.61.06-1.07-1.02-.94-.13 1.69-.79.83 1 .51 1-.41z" /><path d="m610.64 486.47l-.45.1-.83.6.55.89 1.64 1.23-.91-2.82z" /><path d="m604.48 469.47l.28-1.71-.42-.27-.33.1-.3.36.12 2.86.65-1.34z" /><path d="m604.59 496.74l.86-2.11.05-2.58.63-2.25-.02-.88-.67-.47-.34-1.08.79-.86.26-.91 1.4-2.1.26-.95-.33-4.28 1.42-.35 1.18-1.75-.52-6.4-1.61-1.89.48-.67.85-1.79 1.1-.55.78-1.35.48-1.37.16-.62-1.19-1.73 1.24-1.32-.2-.74-.09-2.24-.68.04-2.15 1.19-1.38 2.62.06 2.62-1.05 3.92.45.76-.49 2.53-1.11 1.2-.27.84.4 2.27-.56 1.1-.23 1.52-.04 3.78.31.44.9.68.21 1.58-.39.21-1.53.02-.37.45-.74 1.65-.18 2.02-.5 1.32-.84.39-.67 1.17.53.82.33 2.37 1.9 3.68.67.54.45-.49z" /><path d="m317.2 79.05l.32-1.44-.2-.53-.99-.8-3.73-3.96-.2-.42-.63-1.32-.29-1.99-.49-1.42-.57-1.09.04-.51.43-.27 2.34-.27 2.16-.16 1.42-.37.73.79.35 1.21.36.64 1.37 1.15 1.66 1.11 1.62-.15 1.42-.47 1.24-1.8.88-.44 1.01-.08-.06-1.29.36-2.85-.12-1.14-.46-1.04.08-1.14-.15-1.67-1.17-1.13-.75-.44-.12-.61.39-1.14.27-1.31-.46-1.12-.95-.49-1.1-.85-1.32-1.13-.65-.82-1.06-.91-1.3-1.41-.24-3.09-.13-3.25-.45-1.62-.72-2.58.1-.87.44-.66 3.67-2.08.79-.8.13-.62-.14-.91-.69-1.01-1.47-.79-2.08-1.28-1.9-1.34-3.18-.82-3.88-.99-.92-.98-.94-2.38-1.59-3.62-1.7-3.87-1.31-2.38-.06-1.15.79-2.93-.1-.62-.68-.21-1.31.38-1.04.46-.89-.24-.84-.49-.23-.23-2.11 1.08-2.57 1.32-3.04 1.57-2.68 1.37-2.55 1.32-2.46 1.26-.37.98-.61 1.44-2.24 1.1-2.24.79-.52.46-.17.62-1.08 1.24-2.09 1.05-1.74-.1-1.09-.32-5.83 1.82-2.7-.05-2.11 1.18-1.56 1.07-3.14 1.18-2.13 0-3.14-.69-3.87-1.33-1.57-.77-1.42.04-3.42-.18-3.34-.66-4-.78-1.97-.33-4.06-.69-2.63.92-2.38.82-1.95.56-1.6 2.55-.68.9-.78 1.29-.36.91.32 1.08 2.35.77.98 1.06.15.93-.85.95-.7.75 0 .67.38.67.56.5 3.34.31 1.98 0 .77.27.09.91-.73 1.22-2.81.98-1.59 1.04-.5 1.37.02 1.1.54.73 1.35.83 1.26.96.39.78-.15 1.06-.51 1.46-1.39 1.7-1.15 1.21-.09.44.29.65.93.94 1.58 1.4 1.97 1.13 1.26.31.41.27.39 1.31.15 1.38-.5 1.04 1.01.85 2.64-.04 2.15.36.91-.36.63.27-.41 3.08.3 1.82.57.51 2.12.74 4.07-.09 2.4.86 2.66.99 1.41 1.09.64.82-.18 1.31-1.45 1.54-2.37.73-1.38.31-6.81 2.89-2.13 1.21-1.65 1.46-.61 1.1-.32 1.07 1.47 3.88.25 1.2-1.21 4.19-.36 1.55.46 1.09 1.45.41.31.9.15.7-2.53 1.54-2.65 1.36-.85 0-2.54 2.55-4.24 5.12-2.25 1.73-.16.85-.18.86.86 1.45.18 1.22-.96 1.23-1.59 1.41-3.1 1.23-3.91 1.27-1.76.76-1.32 3.32-1.22 3.33-.55 1.23-2.11 3.83-3.69 5.65-.93 1.23-5.7 2.72-5.82 2.96-1.03 1.12-1.19 2.7-1.12 2.96-1.04 1.55-3.7 3.47-1.22 2.66-.38 1.74-3.15.98-3.57.92-5.19.3-2.16.49-6.36 2.4-1.58.1-1.24-.39-.94-.83-.87-1.36-.41-2.09-1.23-.95-1.66-.81-1.74-.04-1.75.89-1.52.98-1.04.8-1.01.94-1.94 3.17-3.15 4.54-3.52 3.3-1.31.99-.81.75-1.1 1.09-.64 1.06-.87 3.47-.5 3.07.23.69.52.58 1.93.89 2.77 1.48 3.61.84 3.03.15 1.14.63.67.86.19.72-.15 2.54-.34 2.72-1.13 2.93.02 1.69.44 1.64 3.38 4.17 1.24.43 2.53.09 1.18-.08 1.3-.42.93.28.69.52.18.84-.1 4.17 1.03 1.88 2.01 2.57 1.59 2.93 1.5 3.52 1.43 2.75.56 1.43-.93.7-.54.72-.13.96.19 1.02-.12.72.68.88.8.29-.03.62-1.25.8-1.13-.03-.86.38-1.66 1.68-.78.34-1.04.15-1.17-.16-1.65-.68-.48-1.07.19-1.12-.37-.67-1.18.13-4.11 1.15-3.92 1.41-.68.96-.9 1.01-1.79.41-2.64.13-1.83-.15-1.68-1.08-1.54-.99-2.38-.04-4.28.14-2.37-.01-1.39-.36-1.38.27-1.72-.39-.76.53-.72.05-.58-.92-.39-.1-.46.13-.39.32-.24.54-.08 6.17-2.82-.04-2.01-.01-2.21.34-2.02.47-1 .56-1.42.89.56 2.63.88 2.71 2.22-.41 1.68-1.82 1.47-.87 2.99-1.24 2.76-.9-3.07 2.01-3.56 2.56-.74 1.19 2.29 4.26 2.29 3.57 3.62 2.8 8.59 4.21 8.8 1.84 1.54-.33 2.26-1.67 5.51-1.86 1.51-.38 1.22-.11 1.81.64.59-.69.58-1.17.78-.96 1.13-.25.41 1.01.08.77-1.5.66-2.31 3.17-3.09 4.99-1.91.4-1.61.12-3.83 1.96-1.88-.27-1.48 1.26-2.18-.1-5.59 2.53-.78-.31-.91-.73-1.29-1.65-1.64-.43-1.4 1.07-.28 1.95.8 1.92 3.75 4.21 3.98 3.12 3.21 3.3 4.24 3.55 5.87 6.71 1.91 1.73 7.34 5.22 4.81 2.05 3.29.53 2.97-.5 7.64-2.69 3.58-2.07 9.11-3.8 1.26-1.4 3.64-6.3.06-2.67-.95-1.38-.81-.94-1.4-.42-1.34-.58.78-.82.39-1.17 1.38-1.33 1.7-.88.61-1.28.66-2.04-1.31-1.15-1.23-.5 3.08-.01 2.53.45 2.75-.61 2.3.3 2.2.62-2.06.53-1.66.16-1.54.81-.63 3.77 1.95.3 1.7-.21-1.15.7-1.06 1.24-1.01 3.71 6.09.19 2.86-.35 2.73-.94-1.84 1.04-4.35 1.64-1.91 1.41-2.14 1.83 1.13.12 1.36-.3-.99.72-1.28 1.31 1.4 3.98 1.22 1 1.28.24.21.69.33 2.69.79 2.55.3 3.2-.25 2.24-3.54 9.96-.84 5.07.17.68.44.84.59 3.67 1.5 1.2-.88 1.42.15.77.49 1.03 4.09 1.75-3.6-.44-.35.96.17.69 0 2.86.65 2.13 1.36-.8 1.46-2.85.69 2.71-.59 1.93-1.6 3.04-.57 1.97.09.83.86 1.37.53 4.32.59 2.18.45 3.32 1.09 3.92 2.24 5.84-.15 1.94 1.85 6.75 2.02 15.16 2.39 6.32.46 2.01 2.7 3.75 1.48 3.33 1.09 1.07 2.05-.05-1.25 1.77.86.71.78 1.15 1.64 1.75-2.69 0 1.71 1.86 1.34 4.76 1.87 2.57.99.97 2.76 3.97 1.17 1.22 1.13 1.52.96 1.65.31 1.79 1.43 3.92 0 .98.65 2.51 2.26 4.04 1.28 3.74.22 1.72.01 1.58 1.81 8.81.67 2.06 1.34 2.72 1.58 5.75 5.16 10.4.68.7 1.74 1.34 2.22 3 2.09 2.24 2.49 4.81 1.6 2.19 2.48 6.25 1.6 5.61 3.56 7.84.56 1.54 1.6 2.59-.18.76.06 1.59.56 1.27.53.13 2.01 1.97 2.3 7.92-.8.32-.9-.4-.07-3.43-.6-2.47-1.2-1.69-.87-.35 1.03 5.14.66 4.61 1.61 4.41.33.6.68.39.4.57.23 1.44 1.44 3.86 1.32 1.14 7.17 9.03 2.03 1.87 4.84 3.51 4.43 1.37 1.43-1.06 3.76-1.23 5.95-3.99 1.36-2.61.2-3.12 1.15-4.67 1.69-2.03 3.01-2.36 11.46-3.36 4.79.26 4.07 1.31-1.13-1.23-1.66-.67-3.46-.5-1.78-.5-1.37-1.24-.7-1.21.43-2.32 1.15-2.41 5.37-7.22-.09-2.87 1.25-1.68 1.56-1.01 2.9-.48 1.17.35 1.62.26 1.83-.1 1.67-.37.25-9.16-.04-8.78-.27-1.48-.74-1.43-2.18.53 1.15-1.19.91-1.56-.81-2.64.36-2.36 1.79-6.13 2.53-5.06 1.14-1.24 2.17-3.2 1.76-4.89 2.33-13.78-1.07-1.54-3.61-1.89-1.07-1.59 1.93-2.21 1.58 2.22.66 1.73.84.74-1.24-4.12-.04-1.8-.4-1.73-1.66-4.12-.66-3.15.51-1.53.69-1.29.18-2.64-.27-2.04-1.37-4.53-.93-5.66.98-5.12 3.94-7.94 1.88-1.69 5.37-2.1 1.26.15 1.52.42.9 2.08.8-.33 1.09.46 1.25.03.3-1.04.75-1.49 2.1-1.65 2.18-6.2.98-1.5 2.37-.58 6.36.63 1.03.11 7.79-3.2 2.41-1.53 1.4-2.15.24-.86.43-1.57-.2-.87-.88-1.09-.51-1.18.09-.87 1.5-2.42 4.79-3.65 7.88-3.85 4.54-3.02 3.9-3.65 3.78-4.45 1.68-1.36 9.23-4.58 1.6-2.21 5.76-5.94 3.01-3.99 1.67-1.65 1.22-1.75.43-1.55 9.33-7.86 4.43-2.42-.09-.62-1.36-.46-2.92 1.6-.98.13-.37-.54 1.76-2.8 4.34-2.84.91.17 1.04.43.1 2.32-1 .55-.29.61 1.6.09 5.71-2.03 7.45-2.14 1.3-.48.48-.52.19-.89-1.37-1.33.99-.02 1.7.97 1.42-1.69 1.09-1.7 5.16-2.91.39-.87-.14-1.3 1.51-2.36 1.82-1.76 1.04-1.65-.74-.92-.89-4.52-1.1-2.89.36-2.68 1.94-2.64 3-2.78 2.06-.9 9.8-2.23 2.98-1.52 2.56-2.01 2.1-3.61 1.1-.95 1.13-1.52-1.56-1.25-1.49-.62-1.01-.87-.41-2.45 1.09 2.23 1.9.99 2.24 1.6-.31 2.19-1.68 4.91-.87 2.04 1.34 1.2 2.7.28.52-1.53.17-1.26.37.71 2.88 2.24 2.85-.93.31-1.11-.68-2.43 1.54-5.95.37 1.13 1 .22.45.42.2.62-1 5.59.07 1.45.37.83.66.78 1.84-1.58.47-1.71 1.03 1.88 1.22.24 1.74-.26-.2-2.15-.46-1.54-1.45-2.14 1.62.01.48-3.2.09-1.91-.12-1.81-1.61-4.85-1.04-2.49.13-.8-.08-.33-.48-3.21-.67-1.95-.34-2.09 1.59-3-.64-.49-1.83-.39-1.71-.52-.42-.78.76-2.95-.89-1.16-1.27-1.17-.4-.46-.42-.61-.58-1.48 1.13-3.12 1.58-3.61.29-1.38.26-2.39.15-.92-.21-.9-1.67-1.05-2.95-.43-2.08-.87-1.22-1.33-1.04-.53-1.27.39-1.63-.51-1.37-1.32-1.14-1.6.14-.75.31-1 2.15-4.13.8-.13 1.86.8.69 0 1.23-1.64 1.71-4.65 2.41.01 2.13.15 1.43.24 1.44-.15 1.49-.37.81-.59.45-.75-.15-.64-1.84-.88-.7-.66-.51-1.86-.54-.7-3.61-.1-1.87-.86-1.02-.76-1.84-2.54-2.26-1.88-2.16-.45-.84-.61-.45-.96.26-1.4.65-1.27.45-1.42 1.73-1.86 2.03-1.63.9-1.12 1.28-1.18.15-.65-.23-.74-1.03-.71-.72-.22-.11-.46.49-1.22.99-.15 2.06 1.1 2.09 1.79 1.24 1.6.05 1.25.8.21.82.05 1.36.56 1.4-.18.91.32.61-.12.23-.72-.69-1.07-.49-.76.57-.76.64-.15.73.19.99.69.72 1.4.13 2.18 1.6 1.98 2.11 1.4 1.65.65 2 .46 1.7-.45.85-1.37-.38-1.23.27-1.11.68-.61 1.06.04.8.88 2.33 4.71-.48 2.09.52 5.74-.59 3.78.09.82.27.63.4.26.67-.01 2.83.71 2.37.79 2.69.72 3.88.56 2.38-.18 1.18-.03 2.4.17 6.33-.3 5.23-.08 2.12.54 1.71.2 5.82-.38 5.88-.18 3.18 1.2 3.46 1.96 1.95 1.46.35.84-.21.71-.66.4-1.19.01-2.75-.95-.47.28.05 1.95-.08.31-.59 1.75-1.65 3.94-.32 1.76-.35.45-.43.25-1.29.07-1.02.29-.42.64-.66 1.33-.45 1.34-.63.41-1.51-.72-.95.11-1.18.31-1.18.76-.82.95-.92.33-2.75-.2-.52.14-.35.68-.28.85-2.15 2.02-.81 3.24-.65 2.09.1 1.64 1.81 4.25 1.26 5.53.49.56.42.18.19-.13-.04-1.15.08-1.38.59-.33.76.29.72 1.2.81 2.21.87.87 1.36.24 1.54-.52 1.16-1 .46-1.08-.32-2.12-.08-1.59.74-1.52 2.65-2.26.38-.69-.17-1.92 0-1.8 1.01-.12 1.34.29 1.7-.89.52-.01.72.95 1.21-.17.88 3.92.92 3.47 0 1.67.15 3.54.42 2.89.65.66.76 1.54.7 1.79.55 1.01.37 3.28.46 2.37.6 7.43.29 1.44 1.13-.69.46-.78.45-1.16.3-.51.65-.03 1.04.57 1.7 1.94 1.13.43 1.13-.3 1.18-2.91.43-.79.57-.52 1.04.09.61-.53.23-1.25 0-1.41-1.17-3.83-.35-1.77-.19-1.74.72-1.8 1-2.1-.24-1.83.27-.72.81-.1 1.02.44 1.12-.3.85-1.12.34-.98.52-4.24.35-3.87.14-3.17-.87-1.89-1.34-5.08.39-.87.6-.2 1.98 1.78.85.3 1.45-.28 1.42-.39 1.03-.03 1.48.61 2.05.68 3.19.84 1.31.63 1.08-.09.88-1.97 1.01-2.88 1.51-4.29 1.73-3.11.45-.83 1.93-2.54 1.86-2.66 1.63-3.36.91-2.42-.08-1-.59-.84-1.22-.53-1.01-.56-.28-.49.03-.57.53-1.57.88-1.85.92-1 2.42-1.24 1.55-1.6 1.73-2.12.95-1.44.48-2.92.52-.58 1.08-.95.81-1.11-.07-.59-.43-.43-.81-2.05-.37-3.21.18-2.6.61-1.05.81-1.48 1.49-.9 2.13-.64 3.26-1.72 5.63-3.99 2.03-1.3 1.4-.67 1.34-1.67 1.86-1.83 2.66-.9 1.71-.36 8.03-1.25 1.36.16 1.36.73 1.69 2.43 1.5.91 1.74.64 1.31-.27.03-.98-4.14-5.67-.37-1.55-.14-1.47.47-1.18 1.29-1.11 1.79-1.27 2.21-1.58 1.4-1.09 1.65-.35.59-.63.18-.91-.09-1-.75-1.13.15-1.42.25-1.29-.67-.39-2.97-2.12-1.43-.59-1.94.64-3.03-.5-1.18-.1-2.52-1.7-1.03-.21-3.59 1.11-.79.78-.47.02-.95-.4-.79-.52-.05-.33.97-.83.07-.58-.05-.59 1.4-1.66 3.8-3.23-.63-1.35-1.5-2.67-.2-1.29-.65-.58-1.82.48-3.79 2.41-.51-.26.08-.84-.39-2.43 1.2-.74 1.84-.89 1.42-1 .33-.8-.38-.25-2.1.32-.82-.55-1.36-2.24-1.01-.87-.9-.48-3.09 1.16-3.58 1.58-4 2.21.03 1.13-.48.29-.76.71-.75.99-.63.34-.75.03-1.51-.28-2.76-1.12-3-.92-.64.1-4.06-.65-.13-.52-.61-1.03-1.16-.94-1.11-.31-3.18 1.97-3.59 1.47-2.05 1.74-1.68 1.73-1.92.33-.09 1.07-.82.96-1.46 1.18-2.91 1.51-1.96.81-6.25.74-2.23.5-.93.8-1 2.01-.79 1.86-1.73 1.53-3.15 2.04-3.69 1.66-1.01 1.11-.19.65.46.24.45.5 0 .75-.48.82-2.41 1.43-1.36.69-1.35.43-1.51.08-1.46-.19-.4-.23-.58.3-1.33.3-1.16.09-2.53 1.59-1.4.01-1.74-.34-2.3-.28-1.66 0-.12.47-.58 1.23-.38 1.35.32 1.1 1.3 1.32 1.74 1.05 2.22.08 2.05-.41.82.17 1.11 1.75.79 1.52-1.07 1.57-.59 1.37-.21.98.13.42.66.79.77 1.35.1 1.24-.48.82-1.06.4-1.12-.12-.92.02-1.16.14-1.82.46-1.68.59-3.16-.11-1.27-1.22-.6 0-2.88 1.58-3.13-.28-5.71.53-2.38.12-2.45-.17-1.24-.34-2.3-1.11-2.09-.81-2.13.74-.74.14-1.71 1.9-3.69.63-3.68.46-1.08-.25-2.08-.11-.07-.45.06-.43-.48-.35-.84-.35-1.44-.15-1.86-.47-1.07-.46-3.77.67-2.21-1-2.49-1.38-1.27-.6-.46-2.14-.44-.68-.99-.73-.55-.85.45-.87 2.49-1.63.2-.38-1.21-.96-1.39-1.38-.33-1.88 1.66-5.04.39-2.08-.41-.79-.51-2.05-.98-.67-2.77-1.07-.89-.03-.95.74-.93.47-1.24.46-3.09.88-2.75.41-.66.33-.21.58.22.7.84.56.08.92-.15 1.01-.85 2.19-.78 1.54-.89 3.26-.82 5.64.18.98 2.42 3.24.95 2.48.09 1.7-1.03 2.84-1.16 3.21-.58.71-.65.26-2.99-1.12-2.06.16-2.37.62-2.47-.12-2.04-.37-2.59 1.29-2.48-.7-1.58-.8-1.06-2.22-.45-.29-5.21 2.33-1.25.14-3.24-1.25-2.65-1.24-.99-.37-2.56-.48-2.3-.28-2.51-.78-3.11 1.01-1.25-.08-1.18-.73-.61-1.49-.16-1.42-1.05-.97-1.64-.23-2.3.88-3.36 1.15-1.08-.19-.99-.33-.37-.31-.46-1.33-.54-.3-.78-.04-1.38-.32-1.7-.99-5.17-2.34-.64-1.04.02-2.3-.29-.95-.63-1-2.65-1.02-5.16-1.63-2.85-1.31-1.35.61-2.62.55-1.41 1.17-1.68-.37-4.01-1.24-2.14-.18-1.3.42-.3.71-1.63.8-1.56-.64-3.07-.87-2.7-.47-4.09-1.05-.46-1.6-.69-1.57-.97-.28-3.67.31-3.36-1.74-3.6-2.22-1.54-.74-1.01-.27-.88.3-.99.51-.91.15-1.95-.96-2.5-1.37-3.07-1.67-3.6-2.35-1.47-1.32-.67-1-.77-.93-3.12-1.53-2.48-1.21-2.98-1.46-.5-.29-1.13-.87-1.73-1.1-1.42-.32-.45.6-.35.64-1.24-.15-1.92-1.11-2.02-1.17-1.58-1.08-1.62-1.11-.39-.83.68-2.54.94-2.18.8-.49 1.3-1.44.47-2.54-.02-2.16 1.28-3.05 1.74-3.25 3.02-3.48 1.31-1.15 1.46-.79 2.79-2.56.58-.42 1.22-.66 1.2-.17.91.32-.51-1.49-2.3-1.1-2.6-1.43-1.33-1.12-1.5-.7-1.39-.3-2.7-.94-3.05-1.06-1.43-.15-.11-.76.43-1.61-.26-1.55-.92-.62-1.4.16-3.22-2.19 0 0-.12-.03-.04-.09-.92-.62-1.58-.9-2.68.07-2.03.33-1.48-.92-2.15-1.45-.39-.32-.17-.14-.46-.39-2.18-2.79-2.57-3.3-1.3-.49-.67.25-.77 1.76-.57-.18-.95.12-1.13.61-1.09.17-.69-.19-.3-.43.31-2.32-.65-.72.58-1.61.98-1.39-1-1.03-1.24-1.48-.14-1.34.68-1.69-1.26-1.59 1.2 1.53.06.06z" /></g></g></svg>